<svg width="49" height="49" viewBox="0 0 49 49" fill="none" xmlns="http://www.w3.org/2000/svg">
<circle cx="24.5" cy="24.5" r="24.5" fill="white"/>
<path d="M29.6667 33.2084V36.2917H8.08334V33.2084C8.08334 33.2084 8.08334 27.0417 18.875 27.0417C29.6667 27.0417 29.6667 33.2084 29.6667 33.2084ZM24.2708 18.5625C24.2708 17.4953 23.9544 16.4521 23.3615 15.5648C22.7686 14.6774 21.9259 13.9858 20.9399 13.5774C19.9539 13.169 18.869 13.0622 17.8223 13.2704C16.7756 13.4786 15.8142 13.9925 15.0596 14.7471C14.305 15.5017 13.7911 16.4632 13.5829 17.5099C13.3747 18.5566 13.4815 19.6415 13.8899 20.6274C14.2983 21.6134 14.9899 22.4561 15.8772 23.049C16.7646 23.6419 17.8078 23.9584 18.875 23.9584C20.3061 23.9584 21.6785 23.3899 22.6904 22.378C23.7024 21.3661 24.2708 19.9936 24.2708 18.5625ZM29.5742 27.0417C30.5219 27.7752 31.2974 28.7074 31.8461 29.7728C32.3948 30.8382 32.7033 32.0109 32.75 33.2084V36.2917H38.9167V33.2084C38.9167 33.2084 38.9167 27.6121 29.5742 27.0417ZM28.125 13.1667C27.0639 13.1608 26.0261 13.4781 25.1496 14.0763C26.0861 15.3848 26.5896 16.9535 26.5896 18.5625C26.5896 20.1716 26.0861 21.7403 25.1496 23.0488C26.0261 23.647 27.0639 23.9643 28.125 23.9584C29.5561 23.9584 30.9285 23.3899 31.9404 22.378C32.9524 21.3661 33.5208 19.9936 33.5208 18.5625C33.5208 17.1315 32.9524 15.759 31.9404 14.7471C30.9285 13.7352 29.5561 13.1667 28.125 13.1667Z" fill="#68D8D6"/>
</svg>
