<svg width="60" height="60" viewBox="0 0 60 60" fill="none" xmlns="http://www.w3.org/2000/svg">
<rect width="60" height="60" rx="30" fill="#F57C55"/>
<g clip-path="url(#clip0_545_420)">
<path d="M17.274 42.726C15.5548 41.0656 14.1835 39.0793 13.2402 36.8833C12.2968 34.6872 11.8003 32.3252 11.7795 29.9352C11.7587 27.5452 12.2142 25.175 13.1192 22.9628C14.0243 20.7507 15.3608 18.741 17.0509 17.0509C18.741 15.3608 20.7507 14.0243 22.9628 13.1192C25.175 12.2142 27.5452 11.7587 29.9352 11.7795C32.3252 11.8003 34.6872 12.2968 36.8833 13.2402C39.0793 14.1835 41.0656 15.5548 42.726 17.274C46.0048 20.6688 47.8191 25.2157 47.7781 29.9352C47.7371 34.6548 45.8441 39.1694 42.5067 42.5067C39.1694 45.8441 34.6548 47.7371 29.9352 47.7781C25.2157 47.8191 20.6688 46.0048 17.274 42.726ZM32.52 30L37.614 24.906L35.076 22.368L30 27.462L24.906 22.368L22.368 24.906L27.462 30L22.368 35.094L24.906 37.632L30 32.538L35.094 37.632L37.632 35.094L32.538 30H32.52Z" fill="white"/>
</g>
<defs>
<clipPath id="clip0_545_420">
<rect width="36" height="36" fill="white" transform="translate(12 12)"/>
</clipPath>
</defs>
</svg>
