<svg width="49" height="49" viewBox="0 0 49 49" fill="none" xmlns="http://www.w3.org/2000/svg">
<circle cx="24.5" cy="24.5" r="24.5" fill="white"/>
<g clip-path="url(#clip0_753_58)">
<path fill-rule="evenodd" clip-rule="evenodd" d="M24.5 8.5814C20.2781 8.5814 16.2292 10.2585 13.2438 13.2438C10.2585 16.2292 8.5814 20.2781 8.5814 24.5C8.5814 28.7219 10.2585 32.7708 13.2438 35.7562C16.2292 38.7415 20.2781 40.4186 24.5 40.4186C28.7219 40.4186 32.7708 38.7415 35.7562 35.7562C38.7415 32.7708 40.4186 28.7219 40.4186 24.5C40.4186 20.2781 38.7415 16.2292 35.7562 13.2438C32.7708 10.2585 28.7219 8.5814 24.5 8.5814ZM6 24.5C6 14.2828 14.2828 6 24.5 6C34.7172 6 43 14.2828 43 24.5C43 34.7172 34.7172 43 24.5 43C14.2828 43 6 34.7172 6 24.5ZM24.5 12.8837C24.8423 12.8837 25.1706 13.0197 25.4127 13.2618C25.6547 13.5038 25.7907 13.8321 25.7907 14.1744V14.72C28.5958 15.2225 30.9535 17.3306 30.9535 20.1977C30.9535 20.54 30.8175 20.8683 30.5755 21.1103C30.3334 21.3524 30.0051 21.4884 29.6628 21.4884C29.3205 21.4884 28.9922 21.3524 28.7501 21.1103C28.5081 20.8683 28.3721 20.54 28.3721 20.1977C28.3721 19.0309 27.4015 17.7935 25.7907 17.353V23.3246C28.5958 23.8271 30.9535 25.9353 30.9535 28.8023C30.9535 31.6694 28.5958 33.7775 25.7907 34.28V34.8256C25.7907 35.1679 25.6547 35.4962 25.4127 35.7382C25.1706 35.9803 24.8423 36.1163 24.5 36.1163C24.1577 36.1163 23.8294 35.9803 23.5873 35.7382C23.3453 35.4962 23.2093 35.1679 23.2093 34.8256V34.28C20.4042 33.7775 18.0465 31.6694 18.0465 28.8023C18.0465 28.46 18.1825 28.1317 18.4245 27.8897C18.6666 27.6476 18.9949 27.5116 19.3372 27.5116C19.6795 27.5116 20.0078 27.6476 20.2499 27.8897C20.4919 28.1317 20.6279 28.46 20.6279 28.8023C20.6279 29.9691 21.5985 31.2065 23.2093 31.6453V25.6754C20.4042 25.1729 18.0465 23.0647 18.0465 20.1977C18.0465 17.3306 20.4042 15.2225 23.2093 14.72V14.1744C23.2093 13.8321 23.3453 13.5038 23.5873 13.2618C23.8294 13.0197 24.1577 12.8837 24.5 12.8837ZM23.2093 17.353C21.5985 17.7935 20.6279 19.0309 20.6279 20.1977C20.6279 21.3645 21.5985 22.6018 23.2093 23.0407V17.353ZM25.7907 25.9576V31.647C27.4015 31.2065 28.3721 29.9708 28.3721 28.8023C28.3721 27.6355 27.4015 26.3965 25.7907 25.9576Z" fill="#F8DD4E"/>
</g>
<defs>
<clipPath id="clip0_753_58">
<rect width="37" height="37" fill="white" transform="translate(6 6)"/>
</clipPath>
</defs>
</svg>
