<svg width="11" height="9" viewBox="0 0 11 9" fill="none" xmlns="http://www.w3.org/2000/svg">
<path d="M0.440186 2.14756L3.5848 4.89416L0.440187 7.64076C0.124104 7.91683 0.124104 8.3628 0.440187 8.63888C0.756269 8.91495 1.26686 8.91495 1.58294 8.63888L5.30299 5.38968C5.61907 5.1136 5.61907 4.66763 5.30299 4.39156L1.58294 1.14236C1.26686 0.866283 0.756268 0.866283 0.440186 1.14236C0.132209 1.41844 0.124104 1.87148 0.440186 2.14756Z" fill="#023E8A"/>
<path d="M4.96961 2.14757L8.11422 4.89417L4.96961 7.64077C4.65352 7.91685 4.65352 8.36281 4.96961 8.63889C5.28569 8.91497 5.79628 8.91497 6.11236 8.63889L9.83241 5.38969C10.1485 5.11362 10.1485 4.66765 9.83241 4.39157L6.11236 1.14237C5.79628 0.866299 5.28569 0.866299 4.96961 1.14237C4.66163 1.41845 4.65352 1.8715 4.96961 2.14757Z" fill="#023E8A"/>
</svg>
