<svg width="14" height="14" viewBox="0 0 14 14" fill="none" xmlns="http://www.w3.org/2000/svg">
<g clip-path="url(#clip0_397_1338)">
<path fill-rule="evenodd" clip-rule="evenodd" d="M2.61335 0.93335H2.56668C2.35295 0.93335 2.16908 0.93335 2.00668 0.971616C1.75528 1.03169 1.52541 1.16019 1.34255 1.34289C1.15969 1.52558 1.03098 1.75533 0.970683 2.00668C0.93335 2.16908 0.93335 2.35202 0.93335 2.56668V4.90002C0.93335 5.11375 0.93335 5.29762 0.971616 5.46002C1.03169 5.71142 1.16019 5.94129 1.34289 6.12415C1.52558 6.30701 1.75533 6.43572 2.00668 6.49602C2.16908 6.53335 2.35202 6.53335 2.56668 6.53335H4.90002C5.11375 6.53335 5.29762 6.53335 5.46002 6.49508C5.71142 6.43501 5.94129 6.30651 6.12415 6.12381C6.30701 5.94112 6.43572 5.71137 6.49602 5.46002C6.53335 5.29762 6.53335 5.11468 6.53335 4.90002V2.56668C6.53335 2.35295 6.53335 2.16908 6.49508 2.00668C6.43501 1.75528 6.30651 1.52541 6.12381 1.34255C5.94112 1.15969 5.71137 1.03098 5.46002 0.970683C5.29762 0.93335 5.11468 0.93335 4.90002 0.93335H4.85335H2.61335ZM2.22415 1.87975C2.26428 1.87042 2.32682 1.86668 2.61335 1.86668H4.85335C5.14082 1.86668 5.20242 1.86948 5.24255 1.87975C5.32639 1.8998 5.40304 1.94268 5.464 2.00364C5.52495 2.06459 5.56783 2.14124 5.58788 2.22508C5.59722 2.26428 5.60002 2.32588 5.60002 2.61335V4.85335C5.60002 5.14082 5.59722 5.20242 5.58695 5.24255C5.5669 5.32639 5.52402 5.40304 5.46306 5.464C5.40211 5.52495 5.32546 5.56783 5.24162 5.58788C5.20335 5.59628 5.14175 5.60002 4.85335 5.60002H2.61335C2.32588 5.60002 2.26428 5.59722 2.22415 5.58695C2.14031 5.5669 2.06366 5.52402 2.0027 5.46306C1.94175 5.40211 1.89887 5.32546 1.87882 5.24162C1.87042 5.20335 1.86668 5.14175 1.86668 4.85335V2.61335C1.86668 2.32588 1.86948 2.26428 1.87975 2.22415C1.8998 2.14031 1.94268 2.06366 2.00364 2.0027C2.06459 1.94175 2.14124 1.89887 2.22508 1.87882M9.14668 0.93335H9.10002C8.88628 0.93335 8.70242 0.93335 8.54002 0.971616C8.28861 1.03169 8.05874 1.16019 7.87589 1.34289C7.69303 1.52558 7.56432 1.75533 7.50402 2.00668C7.46668 2.16908 7.46668 2.35202 7.46668 2.56668V4.90002C7.46668 5.11375 7.46668 5.29762 7.50495 5.46002C7.56502 5.71142 7.69353 5.94129 7.87622 6.12415C8.05891 6.30701 8.28866 6.43572 8.54002 6.49602C8.70242 6.53335 8.88535 6.53335 9.10002 6.53335H11.4333C11.6471 6.53335 11.8309 6.53335 11.9934 6.49508C12.2448 6.43501 12.4746 6.30651 12.6575 6.12381C12.8403 5.94112 12.969 5.71137 13.0293 5.46002C13.0667 5.29762 13.0667 5.11468 13.0667 4.90002V2.56668C13.0667 2.35295 13.0667 2.16908 13.0284 2.00668C12.9683 1.75528 12.8398 1.52541 12.6571 1.34255C12.4745 1.15969 12.2447 1.03098 11.9934 0.970683C11.8309 0.93335 11.648 0.93335 11.4333 0.93335H11.3867H9.14668ZM8.75748 1.87975C8.79762 1.87042 8.86015 1.86668 9.14668 1.86668H11.3867C11.6741 1.86668 11.7357 1.86948 11.7759 1.87975C11.8597 1.8998 11.9364 1.94268 11.9973 2.00364C12.0583 2.06459 12.1012 2.14124 12.1212 2.22508C12.1306 2.26428 12.1333 2.32588 12.1333 2.61335V4.85335C12.1333 5.14082 12.1296 5.20242 12.1203 5.24255C12.1002 5.32639 12.0574 5.40304 11.9964 5.464C11.9354 5.52495 11.8588 5.56783 11.775 5.58788C11.7358 5.59722 11.6741 5.60002 11.3867 5.60002H9.14668C8.85922 5.60002 8.79762 5.59722 8.75748 5.58695C8.67364 5.5669 8.59699 5.52402 8.53604 5.46306C8.47508 5.40211 8.4322 5.32546 8.41215 5.24162C8.40375 5.20335 8.40002 5.14175 8.40002 4.85335V2.61335C8.40002 2.32588 8.40282 2.26428 8.41308 2.22415C8.43313 2.14031 8.47601 2.06366 8.53697 2.0027C8.59793 1.94175 8.67457 1.89887 8.75842 1.87882M2.56668 7.46668H4.90002C5.11375 7.46668 5.29762 7.46668 5.46002 7.50495C5.71142 7.56502 5.94129 7.69353 6.12415 7.87622C6.30701 8.05891 6.43572 8.28866 6.49602 8.54002C6.53335 8.70242 6.53335 8.88535 6.53335 9.10002V11.4333C6.53335 11.6471 6.53335 11.8309 6.49508 11.9934C6.43501 12.2448 6.30651 12.4746 6.12381 12.6575C5.94112 12.8403 5.71137 12.969 5.46002 13.0293C5.29762 13.0667 5.11468 13.0667 4.90002 13.0667H2.56668C2.35295 13.0667 2.16908 13.0667 2.00668 13.0284C1.75528 12.9683 1.52541 12.8398 1.34255 12.6571C1.15969 12.4745 1.03098 12.2447 0.970683 11.9934C0.93335 11.8309 0.93335 11.648 0.93335 11.4333V9.10002C0.93335 8.88628 0.93335 8.70242 0.971616 8.54002C1.03169 8.28861 1.16019 8.05874 1.34289 7.87589C1.52558 7.69303 1.75533 7.56432 2.00668 7.50402C2.16908 7.46668 2.35202 7.46668 2.56668 7.46668ZM2.61335 8.40002C2.32588 8.40002 2.26428 8.40282 2.22415 8.41308C2.14031 8.43313 2.06366 8.47601 2.0027 8.53697C1.94175 8.59793 1.89887 8.67457 1.87882 8.75842C1.87042 8.79668 1.86668 8.85828 1.86668 9.14668V11.3867C1.86668 11.6741 1.86948 11.7357 1.87975 11.7759C1.8998 11.8597 1.94268 11.9364 2.00364 11.9973C2.06459 12.0583 2.14124 12.1012 2.22508 12.1212C2.26428 12.1306 2.32588 12.1333 2.61335 12.1333H4.85335C5.14082 12.1333 5.20242 12.1296 5.24255 12.1203C5.32639 12.1002 5.40304 12.0574 5.464 11.9964C5.52495 11.9354 5.56783 11.8588 5.58788 11.775C5.59722 11.7358 5.60002 11.6741 5.60002 11.3867V9.14668C5.60002 8.85922 5.59722 8.79762 5.58695 8.75748C5.5669 8.67364 5.52402 8.59699 5.46306 8.53604C5.40211 8.47508 5.32546 8.4322 5.24162 8.41215C5.20335 8.40375 5.14175 8.40002 4.85335 8.40002H2.61335ZM9.14668 7.46668H9.10002C8.88628 7.46668 8.70242 7.46668 8.54002 7.50495C8.28861 7.56502 8.05874 7.69353 7.87589 7.87622C7.69303 8.05891 7.56432 8.28866 7.50402 8.54002C7.46668 8.70242 7.46668 8.88535 7.46668 9.10002V11.4333C7.46668 11.6471 7.46668 11.8309 7.50495 11.9934C7.56502 12.2448 7.69353 12.4746 7.87622 12.6575C8.05891 12.8403 8.28866 12.969 8.54002 13.0293C8.70242 13.0676 8.88628 13.0676 9.10002 13.0676H11.4333C11.6471 13.0676 11.8309 13.0676 11.9934 13.0293C12.2446 12.9691 12.4743 12.8406 12.6569 12.6579C12.8396 12.4752 12.9682 12.2455 13.0284 11.9943C13.0667 11.8319 13.0667 11.648 13.0667 11.4343V9.10002C13.0667 8.88628 13.0667 8.70242 13.0284 8.54002C12.9683 8.28861 12.8398 8.05874 12.6571 7.87589C12.4745 7.69303 12.2447 7.56432 11.9934 7.50402C11.8309 7.46668 11.648 7.46668 11.4333 7.46668H11.3867H9.14668ZM8.75748 8.41308C8.79762 8.40375 8.86015 8.40002 9.14668 8.40002H11.3867C11.6741 8.40002 11.7357 8.40282 11.7759 8.41308C11.8597 8.43313 11.9364 8.47601 11.9973 8.53697C12.0583 8.59793 12.1012 8.67457 12.1212 8.75842C12.1306 8.79762 12.1333 8.85922 12.1333 9.14668V11.3867C12.1333 11.6741 12.1296 11.7357 12.1203 11.7759C12.1002 11.8597 12.0574 11.9364 11.9964 11.9973C11.9354 12.0583 11.8588 12.1012 11.775 12.1212C11.7358 12.1306 11.6741 12.1333 11.3867 12.1333H9.14668C8.85922 12.1333 8.79762 12.1296 8.75748 12.1203C8.67364 12.1002 8.59699 12.0574 8.53604 11.9964C8.47508 11.9354 8.4322 11.8588 8.41215 11.775C8.40375 11.7367 8.40002 11.6751 8.40002 11.3867V9.14668C8.40002 8.85922 8.40282 8.79762 8.41308 8.75748C8.43313 8.67364 8.47601 8.59699 8.53697 8.53604C8.59793 8.47508 8.67457 8.4322 8.75842 8.41215" fill="white"/>
</g>
<defs>
<clipPath id="clip0_397_1338">
<rect width="14" height="14" fill="white"/>
</clipPath>
</defs>
</svg>
