<svg width="9" height="13" viewBox="0 0 9 13" fill="none" xmlns="http://www.w3.org/2000/svg">
<path d="M7.55282 4.71506L4.7811 1.96846L2.00938 4.71506C1.73078 4.99114 1.28073 4.99114 1.00213 4.71506C0.723532 4.43899 0.723532 3.99302 1.00213 3.71694L4.28105 0.467743C4.55965 0.191668 5.0097 0.191668 5.2883 0.467743L8.56721 3.71694C8.84581 3.99302 8.84581 4.43899 8.56721 4.71506C8.28861 4.98406 7.83142 4.99114 7.55282 4.71506Z" fill="#023E8A"/>
<path d="M7.55282 8.37796L4.7811 11.1246L2.00938 8.37796C1.73078 8.10188 1.28073 8.10188 1.00213 8.37796C0.723532 8.65403 0.723532 9.1 1.00213 9.37608L4.28105 12.6253C4.55965 12.9013 5.0097 12.9013 5.2883 12.6253L8.56721 9.37608C8.84581 9.1 8.84581 8.65403 8.56721 8.37796C8.28861 8.10896 7.83142 8.10188 7.55282 8.37796Z" fill="#023E8A"/>
</svg>
