<svg width="14" height="14" viewBox="0 0 14 14" fill="none" xmlns="http://www.w3.org/2000/svg">
<path d="M0 0H14V14H0V0Z" fill="white" fill-opacity="0.01"/>
<path d="M7.00002 12.8334C10.2217 12.8334 12.8334 10.2217 12.8334 7.00002C12.8334 3.77836 10.2217 1.16669 7.00002 1.16669C3.77836 1.16669 1.16669 3.77836 1.16669 7.00002C1.16669 10.2217 3.77836 12.8334 7.00002 12.8334Z" stroke="white"/>
<path d="M1.16687 6.07851C2.0462 5.6633 2.69656 5.60546 3.11795 5.90497C3.75005 6.35428 3.82929 8.18539 5.26697 7.31025C6.70466 6.4351 4.65132 6.07851 5.09708 4.81078C5.54283 3.54305 7.00262 4.52781 7.14776 3.13918C7.24447 2.21341 6.1371 1.85918 3.82559 2.0765" stroke="white"/>
<path d="M10.5002 2.33337C8.83354 3.78838 8.25143 4.66703 8.75392 4.96925C9.50761 5.42262 9.82742 4.78434 10.7472 4.96925C11.6669 5.1542 11.4678 6.40087 10.984 6.40087C10.5002 6.40087 7.9948 6.08182 8.121 7.544C8.24717 9.00615 9.75419 9.22263 9.75419 10.0395C9.75419 10.5841 9.42075 11.4176 8.75392 12.54" stroke="white" stroke-linecap="round"/>
<path d="M1.7807 9.60362C2.04655 9.48765 2.24639 9.40266 2.38022 9.34859C3.50229 8.89528 4.33488 8.78841 4.87793 9.02804C5.83825 9.45181 5.46906 10.3076 5.76985 10.6229C6.07062 10.9382 6.82172 10.8465 6.82172 11.4463C6.82172 11.8461 6.68741 12.2978 6.41878 12.8014" stroke="white" stroke-linecap="round"/>
</svg>
